<?xml version="1.0" encoding="UTF-8" standalone="no"?><svg xmlns="http://www.w3.org/2000/svg" xmlns:xlink="http://www.w3.org/1999/xlink" contentScriptType="application/ecmascript" contentStyleType="text/css" height="203px" preserveAspectRatio="none" style="width:878px;height:203px;" version="1.1" viewBox="0 0 878 203" width="878px" zoomAndPan="magnify"><defs><filter height="300%" id="fp1ckfx" width="300%" x="-1" y="-1"><feGaussianBlur result="blurOut" stdDeviation="2.0"/><feColorMatrix in="blurOut" result="blurOut2" type="matrix" values="0 0 0 0 0 0 0 0 0 0 0 0 0 0 0 0 0 0 .4 0"/><feOffset dx="4.0" dy="4.0" in="blurOut2" result="blurOut3"/><feBlend in="SourceGraphic" in2="blurOut3" mode="normal"/></filter></defs><g><!--class Product--><rect fill="#FEFECE" filter="url(#fp1ckfx)" height="48" style="stroke: #A80036; stroke-width: 1.5;" width="74" x="275.5" y="15.5"/><ellipse cx="290.5" cy="31.5" fill="#ADD1B2" rx="11" ry="11" style="stroke: #A80036; stroke-width: 1.0;"/><path d="M289.0781,36.8594 Q287.2188,36.8594 286.125,35.4688 Q285.0313,34.0781 285.0313,31.0938 Q285.0313,28.5625 286.1953,26.9063 Q287.3594,25.25 289.3438,25.25 Q290.8125,25.25 291.2813,25.4141 Q291.75,25.5781 291.75,25.5781 Q291.75,25.5781 291.75,25.5078 Q291.75,25.4375 292.3594,24.5156 L293.4063,28.1719 L292.0781,28.5781 Q291.6094,27.0313 290.9453,26.3672 Q290.2813,25.7031 289.2188,25.7031 Q288.8281,25.7031 288.0625,27.2344 Q287.2969,28.7656 287.2969,31.0156 Q287.2969,33.4844 287.9609,34.875 Q288.625,36.2656 289.1563,36.2656 Q290.2188,36.2656 290.9766,35.5 Q291.7344,34.7344 292.0781,33.0781 L293.4063,33.6719 Q293.0781,35.0781 292.1797,35.9688 Q291.2813,36.8594 289.0781,36.8594 Z "/><text fill="#000000" font-family="sans-serif" font-size="12" lengthAdjust="spacingAndGlyphs" textLength="42" x="304.5" y="37.0576">Product</text><line style="stroke: #A80036; stroke-width: 1.5;" x1="276.5" x2="348.5" y1="47.5" y2="47.5"/><line style="stroke: #A80036; stroke-width: 1.5;" x1="276.5" x2="348.5" y1="55.5" y2="55.5"/><!--class ConcreteProduct--><rect fill="#FEFECE" filter="url(#fp1ckfx)" height="48" style="stroke: #A80036; stroke-width: 1.5;" width="124" x="250.5" y="138.5"/><ellipse cx="265.5" cy="154.5" fill="#ADD1B2" rx="11" ry="11" style="stroke: #A80036; stroke-width: 1.0;"/><path d="M264.0781,159.8594 Q262.2188,159.8594 261.125,158.4688 Q260.0313,157.0781 260.0313,154.0938 Q260.0313,151.5625 261.1953,149.9063 Q262.3594,148.25 264.3438,148.25 Q265.8125,148.25 266.2813,148.4141 Q266.75,148.5781 266.75,148.5781 Q266.75,148.5781 266.75,148.5078 Q266.75,148.4375 267.3594,147.5156 L268.4063,151.1719 L267.0781,151.5781 Q266.6094,150.0313 265.9453,149.3672 Q265.2813,148.7031 264.2188,148.7031 Q263.8281,148.7031 263.0625,150.2344 Q262.2969,151.7656 262.2969,154.0156 Q262.2969,156.4844 262.9609,157.875 Q263.625,159.2656 264.1563,159.2656 Q265.2188,159.2656 265.9766,158.5 Q266.7344,157.7344 267.0781,156.0781 L268.4063,156.6719 Q268.0781,158.0781 267.1797,158.9688 Q266.2813,159.8594 264.0781,159.8594 Z "/><text fill="#000000" font-family="sans-serif" font-size="12" lengthAdjust="spacingAndGlyphs" textLength="92" x="279.5" y="160.0576">ConcreteProduct</text><line style="stroke: #A80036; stroke-width: 1.5;" x1="251.5" x2="373.5" y1="170.5" y2="170.5"/><line style="stroke: #A80036; stroke-width: 1.5;" x1="251.5" x2="373.5" y1="178.5" y2="178.5"/><!--class Creator--><rect fill="#FEFECE" filter="url(#fp1ckfx)" height="63.0229" style="stroke: #A80036; stroke-width: 1.5;" width="99" x="422" y="8"/><ellipse cx="448.7" cy="24" fill="#ADD1B2" rx="11" ry="11" style="stroke: #A80036; stroke-width: 1.0;"/><path d="M447.2781,29.3594 Q445.4188,29.3594 444.325,27.9688 Q443.2313,26.5781 443.2313,23.5938 Q443.2313,21.0625 444.3953,19.4063 Q445.5594,17.75 447.5438,17.75 Q449.0125,17.75 449.4813,17.9141 Q449.95,18.0781 449.95,18.0781 Q449.95,18.0781 449.95,18.0078 Q449.95,17.9375 450.5594,17.0156 L451.6063,20.6719 L450.2781,21.0781 Q449.8094,19.5313 449.1453,18.8672 Q448.4813,18.2031 447.4188,18.2031 Q447.0281,18.2031 446.2625,19.7344 Q445.4969,21.2656 445.4969,23.5156 Q445.4969,25.9844 446.1609,27.375 Q446.825,28.7656 447.3563,28.7656 Q448.4188,28.7656 449.1766,28 Q449.9344,27.2344 450.2781,25.5781 L451.6063,26.1719 Q451.2781,27.5781 450.3797,28.4688 Q449.4813,29.3594 447.2781,29.3594 Z "/><text fill="#000000" font-family="sans-serif" font-size="12" lengthAdjust="spacingAndGlyphs" textLength="41" x="465.3" y="29.5576">Creator</text><line style="stroke: #A80036; stroke-width: 1.5;" x1="423" x2="520" y1="40" y2="40"/><line style="stroke: #A80036; stroke-width: 1.5;" x1="423" x2="520" y1="48" y2="48"/><text fill="#000000" font-family="sans-serif" font-size="11" font-style="italic" lengthAdjust="spacingAndGlyphs" textLength="87" x="428" y="64.606">+FactoryMethod()</text><!--class ConcreteCreator--><rect fill="#FEFECE" filter="url(#fp1ckfx)" height="63.0229" style="stroke: #A80036; stroke-width: 1.5;" width="123" x="410" y="131"/><ellipse cx="425" cy="147" fill="#ADD1B2" rx="11" ry="11" style="stroke: #A80036; stroke-width: 1.0;"/><path d="M423.5781,152.3594 Q421.7188,152.3594 420.625,150.9688 Q419.5313,149.5781 419.5313,146.5938 Q419.5313,144.0625 420.6953,142.4063 Q421.8594,140.75 423.8438,140.75 Q425.3125,140.75 425.7813,140.9141 Q426.25,141.0781 426.25,141.0781 Q426.25,141.0781 426.25,141.0078 Q426.25,140.9375 426.8594,140.0156 L427.9063,143.6719 L426.5781,144.0781 Q426.1094,142.5313 425.4453,141.8672 Q424.7813,141.2031 423.7188,141.2031 Q423.3281,141.2031 422.5625,142.7344 Q421.7969,144.2656 421.7969,146.5156 Q421.7969,148.9844 422.4609,150.375 Q423.125,151.7656 423.6563,151.7656 Q424.7188,151.7656 425.4766,151 Q426.2344,150.2344 426.5781,148.5781 L427.9063,149.1719 Q427.5781,150.5781 426.6797,151.4688 Q425.7813,152.3594 423.5781,152.3594 Z "/><text fill="#000000" font-family="sans-serif" font-size="12" lengthAdjust="spacingAndGlyphs" textLength="91" x="439" y="152.5576">ConcreteCreator</text><line style="stroke: #A80036; stroke-width: 1.5;" x1="411" x2="532" y1="163" y2="163"/><line style="stroke: #A80036; stroke-width: 1.5;" x1="411" x2="532" y1="171" y2="171"/><text fill="#000000" font-family="sans-serif" font-size="11" lengthAdjust="spacingAndGlyphs" textLength="86" x="416" y="187.606">+FactoryMethod()</text><polygon fill="#FBFB77" filter="url(#fp1ckfx)" points="24.5,25.5,24.5,53.2544,240.5,53.2544,240.5,35.5,230.5,25.5,24.5,25.5" style="stroke: #A80036; stroke-width: 1.0;"/><polygon fill="#FBFB77" points="24.5,25.5,24.5,53.2544,240.5,53.2544,240.5,43.5,275.24,39.5,240.5,35.5,240.5,35.5,230.5,25.5,24.5,25.5" style="stroke: #A80036; stroke-width: 1.0;"/><line style="stroke: #A80036; stroke-width: 1.0;" x1="230.5" x2="230.5" y1="25.5" y2="35.5"/><line style="stroke: #A80036; stroke-width: 1.0;" x1="240.5" x2="230.5" y1="35.5" y2="35.5"/><text fill="#000000" font-family="sans-serif" font-size="13" lengthAdjust="spacingAndGlyphs" textLength="195" x="30.5" y="45.3979">定义工厂方法所创建的对象的接口</text><polygon fill="#FBFB77" filter="url(#fp1ckfx)" points="556,25.5,556,53.2544,869,53.2544,869,35.5,859,25.5,556,25.5" style="stroke: #A80036; stroke-width: 1.0;"/><polygon fill="#FBFB77" points="556,25.5,556,35.5,521.395,39.5,556,43.5,556,53.2544,869,53.2544,869,35.5,859,25.5,556,25.5" style="stroke: #A80036; stroke-width: 1.0;"/><line style="stroke: #A80036; stroke-width: 1.0;" x1="859" x2="859" y1="25.5" y2="35.5"/><line style="stroke: #A80036; stroke-width: 1.0;" x1="869" x2="859" y1="35.5" y2="35.5"/><text fill="#000000" font-family="sans-serif" font-size="13" lengthAdjust="spacingAndGlyphs" textLength="292" x="562" y="45.3979">声明工厂方法，该方法返回一个Product类型的对象</text><polygon fill="#FBFB77" filter="url(#fp1ckfx)" points="6,148.5,6,176.2544,215,176.2544,215,158.5,205,148.5,6,148.5" style="stroke: #A80036; stroke-width: 1.0;"/><polygon fill="#FBFB77" points="6,148.5,6,176.2544,215,176.2544,215,166.5,250.452,162.5,215,158.5,215,158.5,205,148.5,6,148.5" style="stroke: #A80036; stroke-width: 1.0;"/><line style="stroke: #A80036; stroke-width: 1.0;" x1="205" x2="205" y1="148.5" y2="158.5"/><line style="stroke: #A80036; stroke-width: 1.0;" x1="215" x2="205" y1="158.5" y2="158.5"/><text fill="#000000" font-family="sans-serif" font-size="13" lengthAdjust="spacingAndGlyphs" textLength="188" x="12" y="168.3979">具体产品，实现了Product的接口</text><polygon fill="#FBFB77" filter="url(#fp1ckfx)" points="568.5,148.5,568.5,176.2544,868.5,176.2544,868.5,158.5,858.5,148.5,568.5,148.5" style="stroke: #A80036; stroke-width: 1.0;"/><polygon fill="#FBFB77" points="568.5,148.5,568.5,158.5,533.25,162.5,568.5,166.5,568.5,176.2544,868.5,176.2544,868.5,158.5,858.5,148.5,568.5,148.5" style="stroke: #A80036; stroke-width: 1.0;"/><line style="stroke: #A80036; stroke-width: 1.0;" x1="858.5" x2="858.5" y1="148.5" y2="158.5"/><line style="stroke: #A80036; stroke-width: 1.0;" x1="868.5" x2="858.5" y1="158.5" y2="158.5"/><text fill="#000000" font-family="sans-serif" font-size="13" lengthAdjust="spacingAndGlyphs" textLength="279" x="574.5" y="168.3979">重定义工厂方法以返回一个ConcreteProduct实例</text><path d="M312.5,83.583 C312.5,101.9591 312.5,122.6784 312.5,138.1297 " fill="none" style="stroke: #A80036; stroke-width: 1.0;"/><polygon fill="none" points="305.5,83.544,312.5,63.544,319.5,83.544,305.5,83.544" style="stroke: #A80036; stroke-width: 1.0;"/><path d="M471.5,91.293 C471.5,104.7857 471.5,118.9401 471.5,130.9764 " fill="none" style="stroke: #A80036; stroke-width: 1.0;"/><polygon fill="none" points="464.5,91.033,471.5,71.033,478.5,91.033,464.5,91.033" style="stroke: #A80036; stroke-width: 1.0;"/><path d="M379.834,162.5 C389.825,162.5 399.817,162.5 409.808,162.5 " fill="none" style="stroke: #A80036; stroke-width: 1.0; stroke-dasharray: 7.0,7.0;"/><polygon fill="#A80036" points="374.609,162.5,383.609,166.5,379.609,162.5,383.609,158.5,374.609,162.5" style="stroke: #A80036; stroke-width: 1.0;"/></g></svg>